<?xml version="1.0" encoding="UTF-8"?><svg xmlns="http://www.w3.org/2000/svg" viewBox="0 0 512 512"><defs><style>.cls-1,.cls-2,.cls-3,.cls-4,.cls-5{fill:#027da5;}.cls-6{fill:#fff;}.cls-2{opacity:.6;}.cls-3{opacity:.7;}.cls-4{opacity:.9;}.cls-5{opacity:.8;}</style></defs><g id="Layer_5"><rect class="cls-6" width="512" height="512"/></g><g id="Layer_1"><rect class="cls-1" x="-.33" width="513.83" height="512"/></g><g id="Layer_3"><polyline class="cls-1" points="513.5 512 513.5 0 425.85 0 -.33 512"/><polyline class="cls-1" points="513.5 512 513.5 0 425.85 0 -.33 512"/><polyline class="cls-6" points="513.5 512 513.5 0 425.85 0 -.33 512"/><polyline class="cls-4" points="513.5 512 513.5 0 425.85 0 -.33 512"/></g><g id="Layer_4"><polygon class="cls-6" points="0 512 513.5 112.56 513.5 512 0 512"/><polygon class="cls-5" points="0 512 513.5 112.56 513.5 512 0 512"/></g><g id="Layer_6"><polygon class="cls-6" points="-.33 512 513.5 289.22 513.5 512 -.33 512"/><polyline class="cls-3" points="513.5 512 -.33 512 513.5 289.22"/></g><g id="Layer_7"><polygon class="cls-6" points="-.33 512 513.5 393.67 513.83 512 -.33 512"/><polyline class="cls-2" points="513.83 512 -.33 512 513.5 393.67"/></g></svg>