<?xml version="1.0" encoding="UTF-8"?><svg xmlns="http://www.w3.org/2000/svg" viewBox="0 0 512 512"><defs><style>.cls-1{opacity:.8;}.cls-1,.cls-2,.cls-3,.cls-4,.cls-5{fill:#a54d68;}.cls-2{opacity:.7;}.cls-3{opacity:.9;}.cls-4{opacity:.6;}.cls-6{fill:#fff;}</style></defs><g id="Layer_5"><rect class="cls-6" width="512" height="512"/></g><g id="Layer_1"><rect class="cls-5" x="-.33" width="512" height="512"/></g><g id="Layer_3"><polyline class="cls-5" points="511.67 512 511.67 0 424.33 0 -.33 512"/><polyline class="cls-5" points="511.67 512 511.67 0 424.33 0 -.33 512"/><polyline class="cls-6" points="511.67 512 511.67 0 424.33 0 -.33 512"/><polyline class="cls-3" points="511.67 512 511.67 0 424.33 0 -.33 512"/></g><g id="Layer_4"><polygon class="cls-6" points="0 512 511.67 112.56 511.67 512 0 512"/><polygon class="cls-1" points="0 512 511.67 112.56 511.67 512 0 512"/></g><g id="Layer_6"><polygon class="cls-6" points="-.33 512 511.67 289.22 511.67 512 -.33 512"/><polyline class="cls-2" points="511.67 512 -.33 512 511.67 289.22"/></g><g id="Layer_7"><polygon class="cls-6" points="-.33 512 511.67 393.67 512 512 -.33 512"/><polyline class="cls-4" points="512 512 -.33 512 511.67 393.67"/></g></svg>