<?xml version="1.0" encoding="UTF-8"?>
<svg id="Layer_1" xmlns="http://www.w3.org/2000/svg" version="1.1" viewBox="0 0 24 24">
  <!-- Generator: Adobe Illustrator 30.2.1, SVG Export Plug-In . SVG Version: 2.1.1 Build 1)  -->
  <defs>
    <style>
      .st0 {
        font-family: MyriadPro-Regular, 'Myriad Pro';
        font-size: 12px;
      }

      .st1 {
        fill: #1f1f1f;
      }

      .st2 {
        fill: none;
        stroke: #fff;
        stroke-miterlimit: 10;
        stroke-width: 2px;
      }
    </style>
  </defs>
  <g>
    <path class="st2" d="M12.2,10.8c-3.8-3.6,2.1-9.4,5.7-5.6,3.8,3.6-2.1,9.4-5.7,5.6ZM7,20c-1.1-5.5,3.4-6.9,8-7,4.6.1,9.1,1.5,8,7H7Z"/>
    <path class="st1" d="M12.2,10.8c-3.8-3.6,2.1-9.4,5.7-5.6,3.8,3.6-2.1,9.4-5.7,5.6ZM7,20c-1.1-5.5,3.4-6.9,8-7,4.6.1,9.1,1.5,8,7H7Z"/>
  </g>
  <text class="st0" transform="translate(256 256)"><tspan x="0" y="0">#F42E87</tspan></text>
  <g>
    <path class="st2" d="M6.5,11.3c-.8-.8-1.2-1.7-1.2-2.8s.4-2,1.2-2.8c.8-.8,1.7-1.2,2.8-1.2s2,.4,2.8,1.2,1.2,1.7,1.2,2.8-.4,2-1.2,2.8c-.8.8-1.7,1.2-2.8,1.2s-2-.4-2.8-1.2ZM1.3,20.5v-2.8c0-.6.1-1.1.4-1.6.3-.5.7-.8,1.2-1.1,1-.5,2.1-.9,3.2-1.2,1.1-.3,2.2-.4,3.3-.4s2.2.1,3.3.4c1.1.3,2.1.6,3.2,1.2.5.3.9.6,1.2,1.1s.4,1,.4,1.6v2.8H1.3Z"/>
    <path class="st1" d="M6.5,11.3c-.8-.8-1.2-1.7-1.2-2.8s.4-2,1.2-2.8c.8-.8,1.7-1.2,2.8-1.2s2,.4,2.8,1.2,1.2,1.7,1.2,2.8-.4,2-1.2,2.8c-.8.8-1.7,1.2-2.8,1.2s-2-.4-2.8-1.2ZM1.3,20.5v-2.8c0-.6.1-1.1.4-1.6.3-.5.7-.8,1.2-1.1,1-.5,2.1-.9,3.2-1.2,1.1-.3,2.2-.4,3.3-.4s2.2.1,3.3.4c1.1.3,2.1.6,3.2,1.2.5.3.9.6,1.2,1.1s.4,1,.4,1.6v2.8H1.3Z"/>
  </g>
</svg>