<?xml version="1.0" encoding="UTF-8"?><svg id="Layer_1" xmlns="http://www.w3.org/2000/svg" viewBox="0 0 48 48"><defs><style>.cls-1{fill:#fff;}.cls-2{fill:#1f1f1f;}</style></defs><g id="Layer_2"><path class="cls-2" d="M14.05,20c-.22-.08-3.02-8.48-2.46-13,.61-4.92-1.84-3-1.84-3-1.74-.35-3.07,9.35-3.07,9.35,0,0-1.13,5.21-.41,7.67s3.07,8.29,3.07,8.29l.2,9.72,29.17-.82s-.51-10.03-.61-8.7.72-1.54-3.79-3.07-8.05-1.13-10.32-1.13-6.36-1.94-6.36-1.94"/></g><path class="cls-2" d="M4,46v-3h40v3H4ZM8,40v-10.5c-1.3-3.03-2.2-5.49-2.7-7.38-.5-1.88-.75-3.78-.75-5.68s.24-3.97.73-6.1,1.16-4.15,2.03-6.05c.33-.73.78-1.29,1.33-1.68s1.16-.58,1.83-.58c.9,0,1.58.29,2.05.88.47.58.7,1.46.7,2.63v6.55c0,1.47.28,2.85.85,4.15s1.34,2.43,2.33,3.4,2.13,1.73,3.43,2.28,2.7.83,4.2.83c2.7,0,5.05.2,7.05.6s3.67.98,5,1.75,2.33,1.74,2.98,2.93.98,2.58.98,4.18v7.8H8ZM11,37h26v-4.8c0-1.1-.27-2.05-.8-2.85s-1.33-1.47-2.4-2-2.42-.93-4.05-1.2-3.55-.4-5.75-.4c-1.9,0-3.69-.36-5.38-1.08s-3.15-1.69-4.4-2.93c-1.25-1.23-2.24-2.68-2.98-4.35s-1.1-3.45-1.1-5.35v-6.5c-.77,1.5-1.39,3.24-1.88,5.23s-.73,3.88-.73,5.68c0,1.7.26,3.46.78,5.28.52,1.82,1.41,4.13,2.68,6.93v8.35ZM18.35,17.65c-1.57-1.57-2.35-3.45-2.35-5.65s.78-4.08,2.35-5.65,3.45-2.35,5.65-2.35,4.08.78,5.65,2.35,2.35,3.45,2.35,5.65-.78,4.08-2.35,5.65-3.45,2.35-5.65,2.35-4.08-.78-5.65-2.35ZM27.55,15.55c.97-.97,1.45-2.15,1.45-3.55s-.48-2.58-1.45-3.55-2.15-1.45-3.55-1.45-2.58.48-3.55,1.45-1.45,2.15-1.45,3.55.48,2.58,1.45,3.55,2.15,1.45,3.55,1.45,2.58-.48,3.55-1.45ZM16.5,40v-1.85c0-2.1.73-3.9,2.18-5.4s3.23-2.25,5.33-2.25h7.5v3h-7.5c-1.27,0-2.33.46-3.2,1.38-.87.92-1.3,2.01-1.3,3.28v1.85h-3Z"/><path class="cls-1" d="M24,30.5c-2.1,0-3.88.75-5.33,2.25-1.13,1.17-1.8,2.52-2.05,4.06.03,0,.06,0,.09,0h1.33c.54,0,1.09.04,1.63.11.19-.75.56-1.44,1.13-2.04.87-.92,1.93-1.38,3.2-1.38h7.5v-3h-7.5Z"/><path class="cls-1" d="M24,17c1.4,0,2.58-.48,3.55-1.45s1.45-2.15,1.45-3.55-.48-2.58-1.45-3.55-2.15-1.45-3.55-1.45-2.58.48-3.55,1.45-1.45,2.15-1.45,3.55.48,2.58,1.45,3.55,2.15,1.45,3.55,1.45Z"/><rect class="cls-1" x="16.5" y="36.73" width="3.27" height="3.27"/><circle class="cls-2" cx="24.03" cy="11.97" r="5.9"/></svg>