<?xml version="1.0" encoding="UTF-8"?><svg id="Layer_1" xmlns="http://www.w3.org/2000/svg" viewBox="0 0 48 48"><defs><style>.cls-1{fill:#fefefe;}</style></defs><g id="Layer_2"><path d="M17.64,25.88s4.09,1.94,6.36,1.94,5.81-.41,10.32,1.13,3.68,4.4,3.79,3.07.61,8.7.61,8.7l-29.17.82-.2-9.72s-2.35-5.83-3.07-8.29.41-7.67.41-7.67c0,0,1.33-9.7,3.07-9.35,0,0,2.46-1.92,1.84,3-.56,4.52,2.24,12.92,2.46,13,0,0,2,2.57,3.58,3.38Z"/></g><path d="M8,42.5v-10.5c-1.3-3.03-2.2-5.49-2.7-7.38-.5-1.88-.75-3.78-.75-5.68s.24-3.97.73-6.1,1.16-4.15,2.03-6.05c.33-.73.78-1.29,1.33-1.68s1.16-.58,1.83-.58c.9,0,1.58.29,2.05.88.47.58.7,1.46.7,2.63v6.55c0,1.47.28,2.85.85,4.15s1.34,2.43,2.33,3.4,2.13,1.73,3.43,2.28,2.7.83,4.2.83c2.7,0,5.05.2,7.05.6s3.67.98,5,1.75,2.33,1.74,2.98,2.93.98,2.58.98,4.18v7.8H8ZM11,39.5h26v-4.8c0-1.1-.27-2.05-.8-2.85s-1.33-1.47-2.4-2-2.42-.93-4.05-1.2-3.55-.4-5.75-.4c-1.9,0-3.69-.36-5.38-1.08s-3.15-1.69-4.4-2.93c-1.25-1.23-2.24-2.68-2.98-4.35s-1.1-3.45-1.1-5.35v-6.5c-.77,1.5-1.39,3.24-1.88,5.23s-.73,3.88-.73,5.68c0,1.7.26,3.46.78,5.28.52,1.82,1.41,4.13,2.68,6.93v8.35ZM18.35,20.15c-1.57-1.57-2.35-3.45-2.35-5.65s.78-4.08,2.35-5.65,3.45-2.35,5.65-2.35,4.08.78,5.65,2.35,2.35,3.45,2.35,5.65-.78,4.08-2.35,5.65-3.45,2.35-5.65,2.35-4.08-.78-5.65-2.35ZM27.55,18.05c.97-.97,1.45-2.15,1.45-3.55s-.48-2.58-1.45-3.55-2.15-1.45-3.55-1.45-2.58.48-3.55,1.45-1.45,2.15-1.45,3.55.48,2.58,1.45,3.55,2.15,1.45,3.55,1.45,2.58-.48,3.55-1.45ZM16.5,42.5v-1.85c0-2.1.73-3.9,2.18-5.4s3.23-2.25,5.33-2.25h7.5v3h-7.5c-1.27,0-2.33.46-3.2,1.38-.87.92-1.3,2.01-1.3,3.28v1.85h-3Z"/><path class="cls-1" d="M24,33c-2.1,0-3.88.75-5.33,2.25-1.13,1.17-1.8,2.52-2.05,4.06-.31,1.23-.13,3.19-.13,3.19h1.63c.52,0,1.16,0,1.37,0,0,0-.18-1.59.17-3.09.19-.75.56-1.44,1.13-2.04.87-.92,1.93-1.38,3.2-1.38h7.5v-3h-7.5Z"/><path d="M24,19.5c1.4,0,2.58-.48,3.55-1.45s1.45-2.15,1.45-3.55-.48-2.58-1.45-3.55-2.15-1.45-3.55-1.45-2.58.48-3.55,1.45-1.45,2.15-1.45,3.55.48,2.58,1.45,3.55,2.15,1.45,3.55,1.45Z"/><circle cx="24.03" cy="14.47" r="5.9"/></svg>