<?xml version="1.0" encoding="UTF-8"?><svg id="Layer_1" xmlns="http://www.w3.org/2000/svg" viewBox="0 0 24 24"><defs><style>.cls-1{fill:#1f1f1f;}.cls-2{fill:none;stroke:#fff;stroke-miterlimit:10;stroke-width:2px;}</style></defs><path class="cls-2" d="M12.18,10.82c-3.75-3.59,2.06-9.4,5.65-5.65,3.75,3.59-2.06,9.4-5.65,5.65ZM7,20c-1.08-5.55,3.41-6.88,8-7,4.58.12,9.09,1.46,8,7H7Z"/><path class="cls-1" d="M12.18,10.82c-3.75-3.59,2.06-9.4,5.65-5.65,3.75,3.59-2.06,9.4-5.65,5.65ZM7,20c-1.08-5.55,3.41-6.88,8-7,4.58.12,9.09,1.46,8,7H7Z"/><path class="cls-2" d="M6.49,11.3c-.78-.78-1.18-1.73-1.18-2.83s.39-2.04,1.18-2.83c.78-.78,1.73-1.18,2.83-1.18s2.04.39,2.83,1.18,1.18,1.73,1.18,2.83-.39,2.04-1.18,2.83c-.78.78-1.73,1.18-2.83,1.18s-2.04-.39-2.83-1.18ZM1.32,20.47v-2.8c0-.57.15-1.09.44-1.56.29-.48.68-.84,1.16-1.09,1.03-.52,2.08-.9,3.15-1.16,1.07-.26,2.15-.39,3.25-.39s2.18.13,3.25.39c1.07.26,2.12.65,3.15,1.16.48.25.87.61,1.16,1.09s.44,1,.44,1.56v2.8H1.32Z"/><path class="cls-1" d="M6.49,11.3c-.78-.78-1.18-1.73-1.18-2.83s.39-2.04,1.18-2.83c.78-.78,1.73-1.18,2.83-1.18s2.04.39,2.83,1.18,1.18,1.73,1.18,2.83-.39,2.04-1.18,2.83c-.78.78-1.73,1.18-2.83,1.18s-2.04-.39-2.83-1.18ZM1.32,20.47v-2.8c0-.57.15-1.09.44-1.56.29-.48.68-.84,1.16-1.09,1.03-.52,2.08-.9,3.15-1.16,1.07-.26,2.15-.39,3.25-.39s2.18.13,3.25.39c1.07.26,2.12.65,3.15,1.16.48.25.87.61,1.16,1.09s.44,1,.44,1.56v2.8H1.32Z"/></svg>